<svg xmlns="http://www.w3.org/2000/svg" width="18" height="18" viewBox="0 0 24 24" aria-hidden="true">
  <path fill="#555a60" d="M12 2.2A10 10 0 0 0 8.8 21.7c.5.1.7-.2.7-.5v-1.8c-2.9.6-3.5-1.2-3.5-1.2-.5-1.2-1.1-1.5-1.1-1.5-.9-.6.1-.6.1-.6 1 .1 1.6 1.1 1.6 1.1.9 1.6 2.4 1.1 3 .8.1-.7.4-1.1.7-1.3-2.3-.3-4.7-1.2-4.7-5A3.9 3.9 0 0 1 6.6 9c-.1-.3-.5-1.3.1-2.7 0 0 .9-.3 2.8 1a9.7 9.7 0 0 1 5 0c1.9-1.3 2.8-1 2.8-1 .6 1.4.2 2.4.1 2.7a3.9 3.9 0 0 1 1.1 2.7c0 3.9-2.4 4.7-4.7 5 .4.3.8 1 .8 2v2.5c0 .3.2.6.8.5A10 10 0 0 0 12 2.2Z"/>
</svg>
